<svg id="Instagram" xmlns="http://www.w3.org/2000/svg" width="146" height="146" viewBox="0 0 146 146">
  <path id="Tracé_1655" data-name="Tracé 1655" d="M77.079,17.232c19.492,0,21.8.074,29.5.425,7.117.325,10.983,1.514,13.555,2.513a22.623,22.623,0,0,1,8.394,5.461,22.623,22.623,0,0,1,5.461,8.394c1,2.572,2.189,6.438,2.513,13.555.351,7.7.425,10.006.425,29.5s-.074,21.8-.425,29.5c-.325,7.117-1.514,10.983-2.513,13.555a24.176,24.176,0,0,1-13.854,13.854c-2.573,1-6.438,2.189-13.555,2.513-7.7.351-10.005.425-29.5.425s-21.8-.074-29.5-.425c-7.117-.325-10.983-1.514-13.555-2.513a22.623,22.623,0,0,1-8.394-5.461,22.62,22.62,0,0,1-5.461-8.394c-1-2.573-2.189-6.438-2.513-13.555-.351-7.7-.425-10.006-.425-29.5s.074-21.8.425-29.5c.325-7.117,1.514-10.983,2.513-13.555a22.623,22.623,0,0,1,5.461-8.394,22.623,22.623,0,0,1,8.394-5.461c2.572-1,6.438-2.189,13.555-2.513,7.7-.351,10.006-.425,29.5-.425m0-13.153c-19.826,0-22.312.084-30.1.439a53.583,53.583,0,0,0-17.72,3.393,35.783,35.783,0,0,0-12.93,8.42,35.783,35.783,0,0,0-8.42,12.93,53.583,53.583,0,0,0-3.393,17.72c-.355,7.786-.439,10.272-.439,30.1s.084,22.312.439,30.1A53.583,53.583,0,0,0,7.912,124.9a35.785,35.785,0,0,0,8.42,12.93,35.783,35.783,0,0,0,12.93,8.42,53.583,53.583,0,0,0,17.72,3.393c7.786.355,10.272.439,30.1.439s22.312-.084,30.1-.439a53.583,53.583,0,0,0,17.72-3.393,37.329,37.329,0,0,0,21.35-21.35,53.583,53.583,0,0,0,3.393-17.72c.355-7.786.439-10.272.439-30.1s-.084-22.312-.439-30.1a53.583,53.583,0,0,0-3.393-17.72,35.783,35.783,0,0,0-8.42-12.93,35.783,35.783,0,0,0-12.93-8.42,53.583,53.583,0,0,0-17.72-3.393c-7.786-.355-10.272-.439-30.1-.439Z" transform="translate(-4.079 -4.079)" fill="#fff"/>
  <path id="Tracé_1656" data-name="Tracé 1656" d="M164.122,126.635a37.487,37.487,0,1,0,37.486,37.487A37.487,37.487,0,0,0,164.122,126.635Zm0,61.82a24.333,24.333,0,1,1,24.334-24.333A24.333,24.333,0,0,1,164.122,188.455Z" transform="translate(-91.121 -91.121)" fill="#fff"/>
  <circle id="Ellipse_10" data-name="Ellipse 10" cx="8.76" cy="8.76" r="8.76" transform="translate(103.206 25.273)" fill="#fff"/>
</svg>
